<svg fill="none" height="24" viewBox="0 0 24 24" width="24" xmlns="http://www.w3.org/2000/svg"><path clip-rule="evenodd" d="m7.91988 2.00012h8.17002c3.53 0 5.91 2.271 5.91 5.66v8.66998c0 3.39-2.38 5.67-5.91 5.67h-8.17002c-3.54 0-5.92-2.28-5.92-5.67v-8.66998c0-3.389 2.38-5.66 5.92-5.66zm1.81 10.74998h6.35002c.42 0 .75-.34.75-.75 0-.42-.33-.75-.75-.75h-6.35002l2.48002-2.46998c.14-.14.22-.34.22-.53 0-.189-.08-.38-.22-.53-.29-.29-.77-.29-1.06 0l-3.77002 3.74998c-.28.28-.28.78 0 1.06l3.77002 3.75c.29.29.77.29 1.06 0 .29-.3.29-.77 0-1.07z" fill="#fff" fill-rule="evenodd"/></svg>